<?xml version="1.0" encoding="UTF-8"?>
<svg version="1.1" xmlns="http://www.w3.org/2000/svg" width="793" height="852">
<path d="M0 0 C261.69 0 523.38 0 793 0 C793 281.16 793 562.32 793 852 C531.31 852 269.62 852 0 852 C0 570.84 0 289.68 0 0 Z " fill="#A6519E" transform="translate(0,0)"/>
<path d="M0 0 C8.91 0 17.82 0 27 0 C27 281.16 27 562.32 27 852 C-110.28 852 -247.56 852 -389 852 C-387.11005013 846.33015038 -385.33296756 841.2327135 -382.890625 835.8671875 C-382.60072693 835.22741974 -382.31082886 834.58765198 -382.012146 833.92849731 C-381.09560097 831.90873778 -380.17286319 829.89187908 -379.25 827.875 C-378.648044 826.54965782 -378.0464794 825.2241378 -377.4453125 823.8984375 C-373.35936728 814.90307579 -369.19367212 805.94555151 -365 797 C-364.46536133 795.85934082 -363.93072266 794.71868164 -363.37988281 793.54345703 C-362.58855957 791.85518799 -362.58855957 791.85518799 -361.78125 790.1328125 C-351.80436207 768.83840648 -342.02190327 747.45783535 -332.41015625 725.99609375 C-332.1204747 725.34928146 -331.83079315 724.70246918 -331.53233337 724.03605652 C-330.17717256 721.00878649 -328.82425087 717.98055585 -327.47436523 714.95092773 C-321.89453877 702.45244908 -316.04490468 690.08239661 -310.20141602 677.70581055 C-304.77975648 666.2195696 -299.36416706 654.72970211 -294.0625 643.1875 C-293.65604248 642.312146 -293.24958496 641.43679199 -292.83081055 640.53491211 C-292.46511963 639.7331958 -292.09942871 638.93147949 -291.72265625 638.10546875 C-291.41078369 637.42637451 -291.09891113 636.74728027 -290.77758789 636.04760742 C-289.76988511 633.56348011 -289.76988511 633.56348011 -289 629 C-307.48 629.33 -325.96 629.66 -345 630 C-347.39606234 626.00656277 -349.53102907 622.01998412 -351.5546875 617.83984375 C-351.89236649 617.14634323 -352.23004547 616.45284271 -352.57795715 615.73832703 C-353.679722 613.47270857 -354.77760958 611.20524018 -355.875 608.9375 C-356.25371246 608.15679138 -356.63242493 607.37608276 -357.02261353 606.57171631 C-362.55011865 595.17359046 -367.95641833 583.72682713 -373.25537109 572.22045898 C-377.07845818 563.93472386 -381.01330523 555.70773191 -385 547.5 C-389.55305694 538.12603164 -394.01386682 528.71527423 -398.375 519.25 C-403.12807415 508.93804797 -408.02406765 498.70569816 -413 488.5 C-418.40657322 477.40819715 -423.69876541 466.27359817 -428.86645508 455.06787109 C-433.56928759 444.88636349 -438.36894581 434.75219642 -443.1875 424.625 C-443.78828873 423.36218201 -443.78828873 423.36218201 -444.4012146 422.07385254 C-446.03321114 418.6437494 -447.66535148 415.21371478 -449.2978363 411.78384399 C-453.75195156 402.42395027 -458.18926071 393.0561128 -462.625 383.6875 C-463.69015794 381.43810074 -464.75532829 379.18870742 -465.82066345 376.93939209 C-466.50126076 375.5016969 -467.18133529 374.0637541 -467.8608551 372.62554932 C-469.73571391 368.65922544 -471.62270655 364.69909627 -473.52246094 360.74462891 C-473.939664 359.87288528 -474.35686707 359.00114166 -474.78671265 358.10298157 C-475.59674336 356.41087189 -476.40980361 354.72020837 -477.22622681 353.03117371 C-477.77045792 351.8919622 -477.77045792 351.8919622 -478.32568359 350.72973633 C-478.64942963 350.05679031 -478.97317566 349.3838443 -479.30673218 348.69050598 C-480 347 -480 347 -480 345 C-457.2906055 344.3351471 -434.58608153 343.80549289 -411.8683939 343.53141093 C-409.53740244 343.50302995 -407.20642567 343.47363029 -404.87545013 343.44397163 C-358.95323096 342.86097701 -313.02885888 342.45808926 -267.10493326 342.0372082 C-254.83754106 341.9247239 -242.57016531 341.81048808 -230.30279016 341.69616115 C-205.20187699 341.46226729 -180.10094549 341.23039723 -155 341 C-154.70533844 340.09290283 -154.70533844 340.09290283 -154.40472412 339.16748047 C-154.14193665 338.36713379 -153.87914917 337.56678711 -153.60839844 336.7421875 C-153.3500824 335.95183105 -153.09176636 335.16147461 -152.82562256 334.34716797 C-151.56503244 330.76342778 -149.92546026 327.40461618 -148.25 324 C-144.07645574 315.3501764 -140.08155533 306.62536531 -136.125 297.875 C-130.74330772 285.98038758 -125.28301262 274.12468402 -119.77337646 262.28881836 C-112.86708513 247.45207574 -106.09821358 232.56539253 -99.49298096 217.59222412 C-95.19602622 207.85768191 -90.78105709 198.20267182 -86.13500977 188.62841797 C-82.27247128 180.64379439 -78.59309236 172.58067713 -74.9375 164.5 C-69.34572352 152.1412942 -63.69564041 139.81119213 -58 127.5 C-52.4390568 115.47631515 -46.90796103 103.44013228 -41.4375 91.375 C-36.1784933 79.77652055 -30.8843221 68.19479635 -25.5625 56.625 C-17.30806341 38.67482923 -17.30806341 38.67482923 -9.07247925 20.71600342 C-8.36237047 19.16598081 -7.65170516 17.61621302 -6.94046021 16.06671143 C-5.95884369 13.9279535 -4.97917049 11.78831614 -4 9.6484375 C-3.70919052 9.0158905 -3.41838104 8.38334351 -3.11875916 7.73162842 C-1.95058912 5.1738978 -0.89024382 2.67073146 0 0 Z " fill="#D761A3" transform="translate(766,0)"/>
<path d="M0 0 C126.39 0 252.78 0 383 0 C380.7502624 6.74921281 380.7502624 6.74921281 379.35864258 9.73754883 C379.04623627 10.41271042 378.73382996 11.08787201 378.41195679 11.78349304 C378.07620636 12.50076065 377.74045593 13.21802826 377.39453125 13.95703125 C377.03880035 14.72404861 376.68306946 15.49106598 376.31655884 16.28132629 C375.55084186 17.93168899 374.78372723 19.58140381 374.01535034 21.23052979 C371.95924053 25.64405831 369.91381232 30.06253599 367.8671875 34.48046875 C367.24543892 35.82159729 367.24543892 35.82159729 366.61112976 37.18981934 C362.84622428 45.31669353 359.1334709 53.46659701 355.4375 61.625 C350.17949385 73.22392715 344.88463281 84.80535562 339.5625 96.375 C334.0073005 108.45217742 328.46221224 120.53384241 322.9375 132.625 C322.60903076 133.34381348 322.28056152 134.06262695 321.94213867 134.80322266 C319.6275706 139.86857677 317.31369374 144.93424647 315 150 C312.35465606 155.79189033 309.70898807 161.58363235 307.0625 167.375 C306.73402069 168.09383362 306.40554138 168.81266724 306.06710815 169.55328369 C300.53714937 181.65314698 294.98591808 193.74316011 289.42852783 205.83044434 C284.25224341 217.08954906 279.08789947 228.35403046 273.9375 239.625 C273.60894012 240.34399475 273.28038025 241.0629895 272.94186401 241.80377197 C270.62738604 246.86894231 268.31360874 251.93443258 266 257 C263.35465606 262.79189033 260.70898807 268.58363235 258.0625 274.375 C257.73402069 275.09383362 257.40554138 275.81266724 257.06710815 276.55328369 C251.53714937 288.65314698 245.98591808 300.74316011 240.42852783 312.83044434 C235.25224341 324.08954906 230.08789947 335.35403046 224.9375 346.625 C224.44466019 347.70349213 224.44466019 347.70349213 223.94186401 348.80377197 C221.62738604 353.86894231 219.31360874 358.93443258 217 364 C214.35465606 369.79189033 211.70898807 375.58363235 209.0625 381.375 C208.73402069 382.09383362 208.40554138 382.81266724 208.06710815 383.55328369 C202.53714937 395.65314698 196.98591808 407.74316011 191.42852783 419.83044434 C186.25224341 431.08954906 181.08789947 442.35403046 175.9375 453.625 C175.44466019 454.70349213 175.44466019 454.70349213 174.94186401 455.80377197 C172.62738604 460.86894231 170.31360874 465.93443258 168 471 C165.35465606 476.79189034 162.70893609 482.58360859 160.0625 488.375 C159.73435303 489.09316895 159.40620605 489.81133789 159.06811523 490.55126953 C153.51682304 502.69905922 147.94080473 514.83538442 142.35913086 526.96923828 C137.0894542 538.42692872 131.85795144 549.90135793 126.65011597 561.38726807 C121.10351509 573.61584599 115.48161198 585.80891391 109.84552002 597.99645996 C104.67071082 609.18857208 99.52934745 620.39490209 94.4375 631.625 C89.17849272 643.22348073 83.88409883 654.80510026 78.5625 666.375 C77.84876044 667.9273927 77.13505596 669.47980153 76.42138672 671.03222656 C76.06825409 671.80036682 75.71512146 672.56850708 75.35128784 673.35992432 C74.99817535 674.12802429 74.64506287 674.89612427 74.28125 675.6875 C73.56770969 677.23958396 72.85416802 678.79166729 72.140625 680.34375 C71.78758301 681.11170898 71.43454102 681.87966797 71.07080078 682.67089844 C70.35571804 684.22627676 69.64054847 685.78161518 68.92529297 687.33691406 C66.46763847 692.68139055 64.01289925 698.0271929 61.5625 703.375 C61.22835083 704.10417633 60.89420166 704.83335266 60.54992676 705.58462524 C55.9735281 715.5807011 51.48215789 725.60809872 47.17993164 735.72607422 C45.0059912 740.81435872 42.66008738 745.77564315 40.15844727 750.71118164 C34.83842046 761.22229887 30.18937845 772.05550074 25.55200195 782.87963867 C23.47820092 787.69914065 21.32472053 792.43445376 18.94018555 797.10766602 C17.33023737 800.3480473 15.92409284 803.67483387 14.5 807 C12.47163812 811.69155868 10.39489478 816.31203715 8.04296875 820.8515625 C5.47997834 826.13113077 3.27847058 831.59242982 1 837 C0.67 837 0.34 837 0 837 C0 560.79 0 284.58 0 0 Z " fill="#FEFEFE" transform="translate(0,0)"/>
<path d="M0 0 C0 74.91 0 149.82 0 227 C-137.28 227 -274.56 227 -416 227 C-414.11005013 221.33015038 -412.33296756 216.2327135 -409.890625 210.8671875 C-409.60072693 210.22741974 -409.31082886 209.58765198 -409.012146 208.92849731 C-408.09560097 206.90873778 -407.17286319 204.89187908 -406.25 202.875 C-405.648044 201.54965782 -405.0464794 200.2241378 -404.4453125 198.8984375 C-400.35936728 189.90307579 -396.19367212 180.94555151 -392 172 C-391.19804199 170.28901123 -391.19804199 170.28901123 -390.37988281 168.54345703 C-389.58855957 166.85518799 -389.58855957 166.85518799 -388.78125 165.1328125 C-378.80436207 143.83840648 -369.02190327 122.45783535 -359.41015625 100.99609375 C-359.1204747 100.34928146 -358.83079315 99.70246918 -358.53233337 99.03605652 C-357.17717256 96.00878649 -355.82425087 92.98055585 -354.47436523 89.95092773 C-348.90997722 77.48703028 -343.07701238 65.15078146 -337.25244141 52.80712891 C-331.18898273 39.95599931 -325.1623374 27.09123042 -319.27441406 14.15844727 C-318.86674805 13.26311279 -318.45908203 12.36777832 -318.0390625 11.4453125 C-317.69053223 10.67719238 -317.34200195 9.90907227 -316.98291016 9.11767578 C-316.02671345 7.05755402 -315.01976757 5.02922306 -314 3 C-313.01157608 2.98969254 -312.02315216 2.97938507 -311.004776 2.96876526 C-298.35731598 2.8365381 -285.70989579 2.70073125 -273.0625 2.5625 C-272.04007832 2.55133148 -271.01765663 2.54016296 -269.96425247 2.52865601 C-245.62028695 2.26192493 -221.27844049 1.97402993 -196.9375 1.5 C-172.62015737 1.03474058 -148.30155249 0.73741541 -123.98134232 0.47134399 C-121.05182681 0.43877118 -118.12233278 0.40471611 -115.19284058 0.37011719 C-76.79182602 -0.07596351 -38.40832147 0 0 0 Z " fill="#FEFEFE" transform="translate(793,625)"/>
<path d="M0 0 C8.91 0 17.82 0 27 0 C27 111.87 27 223.74 27 339 C-101 341 -101 341 -155 341 C-152.9969054 334.99071621 -151.00887509 329.60616744 -148.25 324 C-144.07645574 315.3501764 -140.08155533 306.62536531 -136.125 297.875 C-130.74330772 285.98038758 -125.28301262 274.12468402 -119.77337646 262.28881836 C-112.86708513 247.45207574 -106.09821358 232.56539253 -99.49298096 217.59222412 C-95.19602622 207.85768191 -90.78105709 198.20267182 -86.13500977 188.62841797 C-82.27247128 180.64379439 -78.59309236 172.58067713 -74.9375 164.5 C-69.34572352 152.1412942 -63.69564041 139.81119213 -58 127.5 C-52.4390568 115.47631515 -46.90796103 103.44013228 -41.4375 91.375 C-36.1784933 79.77652055 -30.8843221 68.19479635 -25.5625 56.625 C-17.30806341 38.67482923 -17.30806341 38.67482923 -9.07247925 20.71600342 C-8.36237047 19.16598081 -7.65170516 17.61621302 -6.94046021 16.06671143 C-5.95884369 13.9279535 -4.97917049 11.78831614 -4 9.6484375 C-3.56378578 8.699617 -3.56378578 8.699617 -3.11875916 7.73162842 C-1.95058912 5.1738978 -0.89024382 2.67073146 0 0 Z " fill="#FEFEFE" transform="translate(766,0)"/>
</svg>
