<?xml version="1.0" encoding="UTF-8"?>
<svg version="1.1" xmlns="http://www.w3.org/2000/svg" width="500" height="500">
<path d="M0 0 C0.9384375 -0.00515625 1.876875 -0.0103125 2.84375 -0.015625 C7.66170295 0.46617029 10.35740501 2.65846287 13.5 6.25 C13.5 6.91 13.5 7.57 13.5 8.25 C14.16 8.25 14.82 8.25 15.5 8.25 C15.5 8.91 15.5 9.57 15.5 10.25 C16.16 10.25 16.82 10.25 17.5 10.25 C17.5 10.91 17.5 11.57 17.5 12.25 C18.16 12.25 18.82 12.25 19.5 12.25 C19.5 12.91 19.5 13.57 19.5 14.25 C20.16 14.25 20.82 14.25 21.5 14.25 C21.5 14.91 21.5 15.57 21.5 16.25 C22.16 16.25 22.82 16.25 23.5 16.25 C23.5 16.91 23.5 17.57 23.5 18.25 C24.16 18.25 24.82 18.25 25.5 18.25 C25.5 18.91 25.5 19.57 25.5 20.25 C26.16 20.25 26.82 20.25 27.5 20.25 C27.5 20.91 27.5 21.57 27.5 22.25 C28.16 22.25 28.82 22.25 29.5 22.25 C29.5 22.91 29.5 23.57 29.5 24.25 C30.16 24.25 30.82 24.25 31.5 24.25 C31.5 24.91 31.5 25.57 31.5 26.25 C32.16 26.25 32.82 26.25 33.5 26.25 C33.5 26.91 33.5 27.57 33.5 28.25 C34.16 28.25 34.82 28.25 35.5 28.25 C35.5 28.91 35.5 29.57 35.5 30.25 C37.48 31.24 37.48 31.24 39.5 32.25 C39.5 32.91 39.5 33.57 39.5 34.25 C40.16 34.25 40.82 34.25 41.5 34.25 C43.67812141 38.60624282 44.00037739 42.47716951 43.5 47.25 C42.5 50.25 42.5 50.25 41.5 52.25 C40.84 52.25 40.18 52.25 39.5 52.25 C39.23261788 52.84219117 38.96523576 53.43438235 38.68975115 54.04451871 C37.48173965 56.28384981 36.25590408 57.74470452 34.46398163 59.53770065 C33.83770512 60.16919266 33.21142861 60.80068466 32.56617403 61.45131278 C31.87688421 62.13614116 31.18759439 62.82096954 30.47741699 63.52655029 C29.38053661 64.62811065 29.38053661 64.62811065 28.26149702 65.75192475 C25.80342929 68.2179868 23.33825394 70.6768185 20.87304688 73.13574219 C19.11205673 74.8994415 17.35149254 76.6635662 15.59132385 78.42808533 C11.3021597 82.72543414 7.00832048 87.01805948 2.71216691 91.30841699 C-0.77780736 94.79387724 -4.26582797 98.28128134 -7.75245667 101.7700882 C-8.49636852 102.51445975 -8.49636852 102.51445975 -9.2553089 103.27386911 C-10.26272185 104.2819215 -11.2701303 105.28997838 -12.27753431 106.2980397 C-21.72531831 115.75152766 -31.17922468 125.19887384 -40.63523132 134.64413598 C-48.75558039 142.75554397 -56.87066358 150.87218925 -64.98193359 158.99267578 C-74.39616295 168.41759711 -83.81361396 177.83927981 -93.23626471 187.25578237 C-94.24002845 188.25890899 -95.24378801 189.26203981 -96.24754333 190.26517487 C-96.74144767 190.75877065 -97.23535201 191.25236644 -97.74422315 191.76091968 C-101.23119813 195.24616491 -104.71584096 198.73373156 -108.19960022 202.22219086 C-112.88319125 206.9119616 -117.57203434 211.5964344 -122.26451302 216.27731514 C-123.99085931 218.00100556 -125.71548492 219.72642121 -127.43830681 221.45363426 C-129.78010478 223.80085245 -132.12790239 226.14189416 -134.47741699 228.48138428 C-135.16670681 229.17513554 -135.85599664 229.86888681 -136.56617403 230.58366084 C-137.19245054 231.20472185 -137.81872705 231.82578287 -138.46398163 232.46566391 C-139.00589756 233.00725513 -139.54781348 233.54884635 -140.1061511 234.10684943 C-141.5 235.25 -141.5 235.25 -143.5 235.25 C-143.5 235.91 -143.5 236.57 -143.5 237.25 C-148.76667081 239.5457283 -153.03078575 239.7211758 -158.5 238.25 C-165.39175765 234.27391601 -170.95125036 228.09989019 -176.5 222.5 C-177.37011719 221.63761719 -178.24023438 220.77523437 -179.13671875 219.88671875 C-179.95785156 219.06300781 -180.77898437 218.23929688 -181.625 217.390625 C-182.37007812 216.64329102 -183.11515625 215.89595703 -183.8828125 215.12597656 C-185.5 213.25 -185.5 213.25 -185.5 211.25 C-186.16 211.25 -186.82 211.25 -187.5 211.25 C-187.5 210.59 -187.5 209.93 -187.5 209.25 C-188.16 209.25 -188.82 209.25 -189.5 209.25 C-189.5 208.59 -189.5 207.93 -189.5 207.25 C-190.16 207.25 -190.82 207.25 -191.5 207.25 C-195.20627477 201.80640893 -196.3602797 197.82499485 -195.5 191.25 C-194.5 188.1875 -194.5 188.1875 -193.5 186.25 C-192.84 186.25 -192.18 186.25 -191.5 186.25 C-191.0978125 185.2909375 -191.0978125 185.2909375 -190.6875 184.3125 C-189.5 182.25 -189.5 182.25 -186.5 181.25 C-186.5 180.59 -186.5 179.93 -186.5 179.25 C-185.09254567 178.08284275 -183.6813529 176.91996346 -182.25390625 175.77734375 C-180.43485445 174.19326969 -178.93246251 172.52813751 -177.375 170.6875 C-172.42720374 164.8763299 -166.92675494 159.60786806 -161.5 154.25 C-160.39205078 153.08210938 -160.39205078 153.08210938 -159.26171875 151.890625 C-157.5 150.25 -157.5 150.25 -155.5 150.25 C-155.13182411 149.39468122 -155.13182411 149.39468122 -154.75621033 148.52208328 C-153.28189358 145.85551515 -151.55494784 144.05315304 -149.40063477 141.89666748 C-148.54253204 141.03292511 -147.68442932 140.16918274 -146.80032349 139.27926636 C-145.84745137 138.33028258 -144.89447548 137.381403 -143.94140625 136.43261719 C-142.93902763 135.42752788 -141.93707485 134.42201373 -140.93551636 133.41610718 C-138.21711813 130.68859428 -135.49243521 127.96744189 -132.76630783 125.24765682 C-129.91616233 122.40257325 -127.07089788 119.55261514 -124.22485352 116.70343018 C-119.44678982 111.92172859 -114.66452565 107.14425838 -109.87988281 102.36914062 C-104.34226462 96.84241908 -98.81190515 91.30851244 -93.28523731 85.77084231 C-88.54323201 81.01977393 -83.79735639 76.27259806 -79.04819775 71.52868009 C-76.21015635 68.69376218 -73.37349658 65.85749732 -70.54031372 63.01772308 C-67.8788944 60.35054472 -65.21266533 57.68827155 -62.54257584 55.02977371 C-61.5612324 54.05108408 -60.58160412 53.07067131 -59.60378647 52.08845901 C-58.2735882 50.75283268 -56.93666758 49.42391124 -55.59936523 48.09539795 C-54.47775246 46.97491625 -54.47775246 46.97491625 -53.33348083 45.83179855 C-51.5 44.25 -51.5 44.25 -49.5 44.25 C-49.5 43.59 -49.5 42.93 -49.5 42.25 C-48.84 42.25 -48.18 42.25 -47.5 42.25 C-47.5 41.59 -47.5 40.93 -47.5 40.25 C-46.84 40.25 -46.18 40.25 -45.5 40.25 C-45.5 39.59 -45.5 38.93 -45.5 38.25 C-44.84 38.25 -44.18 38.25 -43.5 38.25 C-43.5 37.59 -43.5 36.93 -43.5 36.25 C-42.84 36.25 -42.18 36.25 -41.5 36.25 C-41.5 35.59 -41.5 34.93 -41.5 34.25 C-40.84 34.25 -40.18 34.25 -39.5 34.25 C-39.5 33.59 -39.5 32.93 -39.5 32.25 C-38.84 32.25 -38.18 32.25 -37.5 32.25 C-37.5 31.59 -37.5 30.93 -37.5 30.25 C-36.84 30.25 -36.18 30.25 -35.5 30.25 C-35.5 29.59 -35.5 28.93 -35.5 28.25 C-34.84 28.25 -34.18 28.25 -33.5 28.25 C-32.84 26.93 -32.18 25.61 -31.5 24.25 C-30.84 24.25 -30.18 24.25 -29.5 24.25 C-28.84 22.93 -28.18 21.61 -27.5 20.25 C-26.84 20.25 -26.18 20.25 -25.5 20.25 C-24.84 18.93 -24.18 17.61 -23.5 16.25 C-22.84 16.25 -22.18 16.25 -21.5 16.25 C-21.5 15.59 -21.5 14.93 -21.5 14.25 C-20.84 14.25 -20.18 14.25 -19.5 14.25 C-19.5 13.59 -19.5 12.93 -19.5 12.25 C-18.84 12.25 -18.18 12.25 -17.5 12.25 C-17.12875 11.38375 -17.12875 11.38375 -16.75 10.5 C-15.31700012 7.92060021 -13.71575324 6.18878408 -11.5 4.25 C-10.84 4.25 -10.18 4.25 -9.5 4.25 C-9.5 3.59 -9.5 2.93 -9.5 2.25 C-6.2396882 0.31226752 -3.77138064 -0.02072187 0 0 Z " fill="#FDFDFD" transform="translate(276.5,72.75)"/>
<path d="M0 0 C6.35798336 3.09758848 10.80662862 7.39217893 15.74926758 12.39282227 C16.59563782 13.23714813 17.44200806 14.081474 18.31402588 14.9513855 C20.6188064 17.25368413 22.91680059 19.5624966 25.21172547 21.87461209 C27.61998034 24.2979746 30.03641002 26.71316022 32.451828 29.12937927 C36.50247057 33.18370526 40.54744994 37.24360926 44.58862305 41.30737305 C49.77465143 46.52233292 54.96996191 51.72794242 60.16824818 56.93068027 C64.64326726 61.4096792 69.11402069 65.89292898 73.58408904 70.37686801 C75.01912809 71.81600194 76.45475054 73.25455195 77.89045143 74.69302559 C80.56217092 77.37160037 83.23047288 80.05353011 85.89770508 82.73657227 C86.69303146 83.53301651 87.48835785 84.32946075 88.30778503 85.15003967 C89.03244965 85.88041443 89.75711426 86.61078918 90.5037384 87.36329651 C91.134371 87.99690377 91.7650036 88.63051104 92.41474628 89.28331852 C95.89390815 93.05092536 96.66325386 95.94880789 97 101 C95.89334604 106.35497555 94.26929202 109.38615414 90.5 113.3125 C89.79943481 114.04750732 89.79943481 114.04750732 89.0847168 114.79736328 C87.40453536 116.54645477 85.70289926 118.27302204 84 120 C83.29053223 120.72848145 82.58106445 121.45696289 81.85009766 122.20751953 C79.51285266 124.60531749 77.1650253 126.99219611 74.8125 129.375 C73.69101562 130.51642456 73.69101562 130.51642456 72.546875 131.6809082 C61.14079156 143.10082177 61.14079156 143.10082177 55.09375 144.83203125 C53.80984375 144.82236328 53.80984375 144.82236328 52.5 144.8125 C51.6440625 144.83957031 50.788125 144.86664063 49.90625 144.89453125 C41.90101802 142.43055528 35.33557702 133.42938856 29.609375 127.6015625 C27.83101482 125.80570667 26.05236047 124.0101421 24.2734375 122.21484375 C21.49638315 119.40669192 18.72174191 116.5962734 15.95214844 113.78076172 C13.26123286 111.0476673 10.56108494 108.32398112 7.859375 105.6015625 C7.03016541 104.75373199 6.20095581 103.90590149 5.34661865 103.03237915 C4.57191223 102.25421844 3.79720581 101.47605774 2.99902344 100.67431641 C2.32143982 99.98705475 1.6438562 99.29979309 0.94573975 98.59170532 C-1.17857995 96.85391332 -2.24274341 96.0301928 -5 96 C-7.29794754 97.57977432 -7.29794754 97.57977432 -9.50561523 99.96972656 C-10.39010849 100.86105286 -11.27460175 101.75237915 -12.18589783 102.67071533 C-13.14357236 103.66057956 -14.1011349 104.65055215 -15.05859375 105.640625 C-16.04856599 106.64500595 -17.03980104 107.64814363 -18.03224182 108.65008545 C-20.64684294 111.29515023 -23.2469786 113.95396455 -25.84350586 116.61676025 C-29.99250358 120.86791013 -34.1607465 125.10010527 -38.33317757 129.32823944 C-39.7857796 130.80493248 -41.23086199 132.28868408 -42.67515564 133.77349854 C-43.56280106 134.67743347 -44.45044647 135.58136841 -45.36499023 136.51269531 C-46.14124252 137.30846985 -46.91749481 138.10424438 -47.7172699 138.9241333 C-51.65541338 142.50539808 -54.9533475 144.45437575 -60.3125 144.625 C-61.19550781 144.67914063 -62.07851562 144.73328125 -62.98828125 144.7890625 C-67.77114119 143.5359656 -70.52018322 140.40807166 -74 137 C-74.69689438 136.31907288 -74.69689438 136.31907288 -75.40786743 135.62438965 C-79.22223951 131.88706235 -82.9884872 128.10289721 -86.75 124.3125 C-87.88387841 123.17359295 -89.01799145 122.03491943 -90.15234375 120.89648438 C-92.22898958 118.81173885 -94.30429638 116.72568135 -96.37792969 114.63793945 C-97.99138348 113.01472081 -99.62375686 111.40974909 -101.28613281 109.83666992 C-104.48977995 106.40347371 -104.53889227 102.29818859 -104.44797421 97.80237007 C-103.1698345 89.80677477 -94.20240359 82.90929966 -88.68139648 77.40673828 C-87.48000031 76.1976757 -87.48000031 76.1976757 -86.2543335 74.96418762 C-83.63168928 72.32775465 -81.0017967 69.69870254 -78.37109375 67.0703125 C-76.53437262 65.22970058 -74.69787405 63.38886655 -72.86158752 61.54782104 C-69.02448015 57.70327604 -65.18362402 53.86253053 -61.34008789 50.02441406 C-56.90569284 45.59607576 -52.48059711 41.15859623 -48.05986542 36.71662152 C-43.7891701 32.42616634 -39.51015041 28.14411826 -35.22780037 23.8652916 C-33.41338127 22.05035942 -31.60132201 20.23306486 -29.7916851 18.41336441 C-27.26463178 15.87397779 -24.72822514 13.34431241 -22.18920898 10.81689453 C-21.07389549 9.69011543 -21.07389549 9.69011543 -19.93605042 8.54057312 C-14.27526848 2.93679925 -8.49343967 -1.89572379 0 0 Z " fill="#FDFDFD" transform="translate(258,240)"/>
<path d="M0 0 C1.94225311 1.33631134 1.94225311 1.33631134 3.77233887 3.02844238 C4.46085434 3.66169937 5.14936981 4.29495636 5.85874939 4.94740295 C9.5411234 8.47731672 13.17265629 12.05094809 16.76757812 15.66992188 C17.60445663 16.50826065 18.44133514 17.34659943 19.30357361 18.21034241 C21.10795689 20.01851099 22.9111847 21.82783323 24.71336365 23.63819885 C27.57022718 26.50790236 30.43019655 29.37447574 33.2911377 32.2401123 C39.87884083 38.83979862 46.46149346 45.44451479 53.04409027 52.04929352 C59.08290197 58.10834954 65.12280678 64.16630547 71.16678762 70.22020578 C74.45880348 73.51796057 77.74688979 76.8196027 81.03430176 80.12194824 C82.76685929 81.85814041 84.49955856 83.59419115 86.23242188 85.33007812 C87.3906974 86.49610313 87.3906974 86.49610313 88.57237244 87.6856842 C92.69599487 91.80970406 96.90686417 95.76405177 101.33230972 99.56336212 C104.79447429 102.54585643 108.00810895 105.78276211 111.25 109 C111.94351563 109.67289062 112.63703125 110.34578125 113.3515625 111.0390625 C117.91700646 115.56952222 122.12082464 119.95967204 123.53125 126.44140625 C123.5209375 127.14136719 123.510625 127.84132813 123.5 128.5625 C123.51546875 129.61630859 123.51546875 129.61630859 123.53125 130.69140625 C122.05417486 137.11016659 116.44552608 141.83497203 111.93359375 146.296875 C111.25829117 146.97171936 110.58298859 147.64656372 109.88722229 148.34185791 C108.46665434 149.75941847 107.04367049 151.1745617 105.6184082 152.58740234 C103.43575404 154.7517313 101.26127691 156.92402469 99.08789062 159.09765625 C97.70359709 160.47703643 96.31884719 161.85595881 94.93359375 163.234375 C94.28353867 163.88331726 93.63348358 164.53225952 92.96372986 165.2008667 C92.35622391 165.8019928 91.74871796 166.4031189 91.12280273 167.02246094 C90.59081772 167.55063416 90.0588327 168.07880737 89.51072693 168.62298584 C85.82504538 171.98245179 82.89531553 172.6681142 78 173 C68.43672886 171.16873531 61.26151274 162.52759551 54.75 155.875 C53.96109375 155.07707031 53.1721875 154.27914062 52.359375 153.45703125 C50.89705757 151.97742291 49.43682187 150.49575171 47.97949219 149.01123047 C46.59456433 147.6040973 45.18099833 146.22484172 43.74707031 144.86767578 C42 143 42 143 42 141 C41.34 141 40.68 141 40 141 C40 140.34 40 139.68 40 139 C39.34 139 38.68 139 38 139 C38 138.34 38 137.68 38 137 C37.34 137 36.68 137 36 137 C36 136.34 36 135.68 36 135 C35.34 135 34.68 135 34 135 C34 134.34 34 133.68 34 133 C33.4014108 132.72631151 32.8028216 132.45262302 32.18609333 132.17064095 C30.07218077 131.03865241 28.70599734 129.95514098 27.02250671 128.26974487 C26.46337585 127.7148085 25.904245 127.15987213 25.32817078 126.58811951 C24.72704971 125.98137894 24.12592865 125.37463837 23.5065918 124.74951172 C22.86376251 124.10858078 22.22093323 123.46764984 21.55862427 122.80729675 C19.43390479 120.68628255 17.31647548 118.55814927 15.19921875 116.4296875 C13.7199136 114.94918959 12.24023788 113.46906187 10.76020813 111.98928833 C7.65612264 108.88363805 4.55542628 105.7746563 1.45727539 102.66308594 C-2.49843314 98.69045448 -6.46062468 94.72436975 -10.4251833 90.76057243 C-13.48396187 87.70152067 -16.54011716 84.63985934 -19.59541893 81.57733536 C-21.05435274 80.11523573 -22.51387856 78.65372657 -23.97402382 77.19283676 C-26.02466977 75.14000115 -28.07197717 73.08389183 -30.1184082 71.02685547 C-30.71345657 70.43226028 -31.30850494 69.8376651 -31.92158508 69.22505188 C-35.58260133 65.53652604 -39.04720205 61.72323213 -42.42991924 57.77762032 C-43.85229448 56.16722983 -45.32422552 54.67273451 -46.875 53.1875 C-49.82000146 50.15588085 -50.15278416 47.69369657 -50.1875 43.625 C-50.07468955 36.65331413 -47.92092511 33.82967787 -43 29 C-42.01417069 28.00264501 -41.03061077 27.00304288 -40.04907227 26.00146484 C-37.17880172 23.07782993 -34.29943652 20.1633422 -31.41674805 17.25195312 C-30.17967387 15.9997311 -28.94529714 14.74483856 -27.71362305 13.48730469 C-25.9216706 11.6588305 -24.12008274 9.84033859 -22.31640625 8.0234375 C-21.77246719 7.46401459 -21.22852814 6.90459167 -20.66810608 6.32821655 C-14.38897615 0.04637118 -8.74168476 -2.4402606 0 0 Z " fill="#FDFDFD" transform="translate(331,170)"/>
<path d="M0 0 C0.66 0.33 1.32 0.66 2 1 C-4.6 7.6 -11.2 14.2 -18 21 C-18.99 20.67 -19.98 20.34 -21 20 C-17.87904935 16.85012694 -14.75257094 13.70579867 -11.625 10.5625 C-10.73554688 9.66466797 -9.84609375 8.76683594 -8.9296875 7.84179688 C-7.65351563 6.56079102 -7.65351563 6.56079102 -6.3515625 5.25390625 C-5.56604004 4.46314697 -4.78051758 3.6723877 -3.97119141 2.85766602 C-2 1 -2 1 0 0 Z " fill="#DFDADB" transform="translate(317,171)"/>
<path d="M0 0 C0.33 0.99 0.66 1.98 1 3 C-1.31 5.31 -3.62 7.62 -6 10 C-6.99 9.67 -7.98 9.34 -9 9 C-6.03 6.03 -3.06 3.06 0 0 Z " fill="#E1DBDD" transform="translate(295,192)"/>
<path d="" fill="#000000" transform="translate(0,0)"/>
<path d="" fill="#000000" transform="translate(0,0)"/>
<path d="" fill="#000000" transform="translate(0,0)"/>
<path d="" fill="#000000" transform="translate(0,0)"/>
<path d="" fill="#000000" transform="translate(0,0)"/>
<path d="" fill="#000000" transform="translate(0,0)"/>
<path d="" fill="#000000" transform="translate(0,0)"/>
<path d="" fill="#000000" transform="translate(0,0)"/>
<path d="" fill="#000000" transform="translate(0,0)"/>
<path d="" fill="#000000" transform="translate(0,0)"/>
<path d="" fill="#000000" transform="translate(0,0)"/>
<path d="" fill="#000000" transform="translate(0,0)"/>
<path d="" fill="#000000" transform="translate(0,0)"/>
<path d="" fill="#000000" transform="translate(0,0)"/>
<path d="" fill="#000000" transform="translate(0,0)"/>
<path d="" fill="#000000" transform="translate(0,0)"/>
<path d="" fill="#000000" transform="translate(0,0)"/>
<path d="" fill="#000000" transform="translate(0,0)"/>
<path d="" fill="#000000" transform="translate(0,0)"/>
<path d="" fill="#000000" transform="translate(0,0)"/>
<path d="" fill="#000000" transform="translate(0,0)"/>
<path d="" fill="#000000" transform="translate(0,0)"/>
<path d="" fill="#000000" transform="translate(0,0)"/>
<path d="" fill="#000000" transform="translate(0,0)"/>
<path d="" fill="#000000" transform="translate(0,0)"/>
<path d="" fill="#000000" transform="translate(0,0)"/>
<path d="" fill="#000000" transform="translate(0,0)"/>
<path d="" fill="#000000" transform="translate(0,0)"/>
<path d="" fill="#000000" transform="translate(0,0)"/>
<path d="" fill="#000000" transform="translate(0,0)"/>
<path d="" fill="#000000" transform="translate(0,0)"/>
<path d="" fill="#000000" transform="translate(0,0)"/>
<path d="" fill="#000000" transform="translate(0,0)"/>
<path d="" fill="#000000" transform="translate(0,0)"/>
<path d="" fill="#000000" transform="translate(0,0)"/>
<path d="" fill="#000000" transform="translate(0,0)"/>
<path d="" fill="#000000" transform="translate(0,0)"/>
<path d="" fill="#000000" transform="translate(0,0)"/>
<path d="" fill="#000000" transform="translate(0,0)"/>
<path d="" fill="#000000" transform="translate(0,0)"/>
<path d="" fill="#000000" transform="translate(0,0)"/>
<path d="" fill="#000000" transform="translate(0,0)"/>
<path d="" fill="#000000" transform="translate(0,0)"/>
<path d="" fill="#000000" transform="translate(0,0)"/>
<path d="" fill="#000000" transform="translate(0,0)"/>
<path d="" fill="#000000" transform="translate(0,0)"/>
<path d="" fill="#000000" transform="translate(0,0)"/>
<path d="" fill="#000000" transform="translate(0,0)"/>
<path d="" fill="#000000" transform="translate(0,0)"/>
<path d="" fill="#000000" transform="translate(0,0)"/>
<path d="" fill="#000000" transform="translate(0,0)"/>
<path d="" fill="#000000" transform="translate(0,0)"/>
<path d="" fill="#000000" transform="translate(0,0)"/>
<path d="" fill="#000000" transform="translate(0,0)"/>
<path d="" fill="#000000" transform="translate(0,0)"/>
<path d="" fill="#000000" transform="translate(0,0)"/>
<path d="" fill="#000000" transform="translate(0,0)"/>
<path d="" fill="#000000" transform="translate(0,0)"/>
<path d="" fill="#000000" transform="translate(0,0)"/>
<path d="" fill="#000000" transform="translate(0,0)"/>
<path d="" fill="#000000" transform="translate(0,0)"/>
<path d="" fill="#000000" transform="translate(0,0)"/>
<path d="" fill="#000000" transform="translate(0,0)"/>
<path d="" fill="#000000" transform="translate(0,0)"/>
<path d="" fill="#000000" transform="translate(0,0)"/>
<path d="" fill="#000000" transform="translate(0,0)"/>
<path d="" fill="#000000" transform="translate(0,0)"/>
<path d="" fill="#000000" transform="translate(0,0)"/>
<path d="" fill="#000000" transform="translate(0,0)"/>
<path d="" fill="#000000" transform="translate(0,0)"/>
</svg>
